<svg width="54" height="54" viewBox="0 0 54 54" fill="none" xmlns="http://www.w3.org/2000/svg">
<path d="M27 40.5C27.765 40.5 28.4067 40.2408 28.9251 39.7224C29.4417 39.2058 29.7 38.565 29.7 37.8V26.9325C29.7 26.1675 29.4417 25.5375 28.9251 25.0425C28.4067 24.5475 27.765 24.3 27 24.3C26.235 24.3 25.5942 24.5583 25.0776 25.0749C24.5592 25.5933 24.3 26.235 24.3 27V37.8675C24.3 38.6325 24.5592 39.2625 25.0776 39.7575C25.5942 40.2525 26.235 40.5 27 40.5ZM27 18.9C27.765 18.9 28.4067 18.6408 28.9251 18.1224C29.4417 17.6058 29.7 16.965 29.7 16.2C29.7 15.435 29.4417 14.7933 28.9251 14.2749C28.4067 13.7583 27.765 13.5 27 13.5C26.235 13.5 25.5942 13.7583 25.0776 14.2749C24.5592 14.7933 24.3 15.435 24.3 16.2C24.3 16.965 24.5592 17.6058 25.0776 18.1224C25.5942 18.6408 26.235 18.9 27 18.9ZM27 54C23.265 54 19.755 53.2908 16.47 51.8724C13.185 50.4558 10.3275 48.5325 7.8975 46.1025C5.4675 43.6725 3.5442 40.815 2.1276 37.53C0.7092 34.245 0 30.735 0 27C0 23.265 0.7092 19.755 2.1276 16.47C3.5442 13.185 5.4675 10.3275 7.8975 7.8975C10.3275 5.4675 13.185 3.5433 16.47 2.1249C19.755 0.7083 23.265 0 27 0C30.735 0 34.245 0.7083 37.53 2.1249C40.815 3.5433 43.6725 5.4675 46.1025 7.8975C48.5325 10.3275 50.4558 13.185 51.8724 16.47C53.2908 19.755 54 23.265 54 27C54 30.735 53.2908 34.245 51.8724 37.53C50.4558 40.815 48.5325 43.6725 46.1025 46.1025C43.6725 48.5325 40.815 50.4558 37.53 51.8724C34.245 53.2908 30.735 54 27 54ZM27 48.6C32.985 48.6 38.0817 46.4967 42.2901 42.2901C46.4967 38.0817 48.6 32.985 48.6 27C48.6 21.015 46.4967 15.9183 42.2901 11.7099C38.0817 7.5033 32.985 5.4 27 5.4C21.015 5.4 15.9192 7.5033 11.7126 11.7099C7.5042 15.9183 5.4 21.015 5.4 27C5.4 32.985 7.5042 38.0817 11.7126 42.2901C15.9192 46.4967 21.015 48.6 27 48.6Z" fill="#00D1FF"/>
</svg>
