<svg width="1785" height="1565" viewBox="0 0 1785 1565" fill="none" xmlns="http://www.w3.org/2000/svg">
<g clip-path="url(#clip0_258_406)">
<circle cx="848" cy="769" r="424" fill="#060C22" stroke="white" stroke-width="12"/>
<path d="M848 240C919.176 240 989.656 254.019 1055.41 281.257C1121.17 308.495 1180.92 348.419 1231.25 398.748C1281.58 449.077 1321.5 508.827 1348.74 574.586C1375.98 640.344 1390 710.824 1390 782C1390 853.176 1375.98 923.656 1348.74 989.414C1321.5 1055.17 1281.58 1114.92 1231.25 1165.25C1180.92 1215.58 1121.17 1255.5 1055.41 1282.74C989.656 1309.98 919.176 1324 848 1324" stroke="white" stroke-width="4"/>
<path d="M944.67 354.417L926.753 422.75C915.503 415.25 893.003 404.75 893.003 422.75C893.003 440.75 853.28 464.694 833.419 474.417L875.503 484L893.003 448.583H913.837V496.917H893.003H862.586V517.75L833.419 525.667L791.753 484L814.253 541.917C792.864 538.167 758.419 534.833 791.753 551.5C833.419 572.333 817.586 589.833 801.336 589.833C788.336 589.833 761.753 589.833 750.086 589.833C750.086 620.5 744.808 634.833 742.169 638.167C766.836 674.167 791.891 649 801.336 631.917C852.586 554.833 913.837 620.667 936.336 625.25C954.335 628.917 937.447 612.889 926.753 604.417C906.086 587.75 909.531 574.972 913.837 570.667C954.838 575.667 964.253 615.528 963.836 634.833C957.447 639.139 951.087 645.167 976.753 634.833C1002.42 624.5 998.002 615.528 992.586 612.333C992.586 626.333 1034.53 633.167 1055.5 634.833C1045.22 635.389 1032.42 635.583 1063.42 631.917C1094.42 628.25 1076.34 666.778 1063.42 686.5C1044.09 707.167 1008.14 695.111 992.586 686.5C970.586 668.5 964.253 694 963.836 709C939.669 717.333 944.67 697.75 930.087 686.5C918.42 677.5 900.503 675.25 893.003 675.25C893.003 661.25 881.336 651.083 875.503 647.75C820.168 645.083 753.836 687.472 727.586 709C701.919 714.333 665.503 764.556 650.503 789C668.503 837.667 658.003 869.278 650.503 879C654.503 911 718.558 939.555 750.086 949.833C779.753 939.5 796.614 945.528 801.336 949.833C856.336 915.167 865.086 935.389 862.586 949.833C916.586 939.5 905.364 979.972 893.003 1001.5C893.003 1001.5 928.975 1058.17 930.087 1081.5C918.281 1089 898.504 1106.92 913.837 1118.58C929.17 1130.25 931.059 1150.11 930.087 1158.58C930.087 1158.58 946.198 1177.33 944.67 1181.08C985.92 1169.28 1069.67 1132.83 1074.67 1081.5C1098.7 1072.06 1142.59 1042.83 1125.92 1001.5C1151.75 963.861 1202.75 877.667 1200.09 834L1164.67 846.917C1138.42 816.778 1083.67 749.5 1074.67 721.5C1097.17 742.056 1144.42 788.25 1153.42 808.583C1180.78 800.389 1230.34 771.5 1209.67 721.5C1193.7 718.444 1158.17 704.917 1143.84 675.25C1154.95 680.111 1180.42 690.75 1193.42 694.417C1206.42 698.083 1216.06 690.667 1219.25 686.5L1265.92 721.5M422.586 769.417L537.586 721.5L569.253 625.25L613.419 541.917V448.583L605.503 415.25" stroke="white" stroke-width="12"/>
<path d="M779.819 72.6568L787.961 71.9038C788.651 75.7318 789.969 78.5087 791.915 80.2345C793.86 81.9603 796.355 82.8231 799.398 82.8231C802.003 82.8231 804.277 82.227 806.223 81.0346C808.2 79.8423 809.816 78.2577 811.071 76.2809C812.326 74.2728 813.377 71.5743 814.224 68.1855C815.071 64.7967 815.495 61.3452 815.495 57.8309C815.495 57.4544 815.479 56.8896 815.448 56.1365C813.753 58.835 811.432 61.0314 808.482 62.7258C805.564 64.3888 802.395 65.2203 798.975 65.2203C793.264 65.2203 788.432 63.1494 784.478 59.0076C780.525 54.8657 778.548 49.4061 778.548 42.6285C778.548 35.6313 780.603 29.999 784.714 25.7317C788.855 21.4643 794.033 19.3307 800.245 19.3307C804.732 19.3307 808.827 20.5387 812.53 22.9548C816.264 25.3708 819.088 28.8224 821.002 33.3094C822.947 37.765 823.92 44.2288 823.92 52.7007C823.92 61.5178 822.963 68.5464 821.049 73.7864C819.135 78.9951 816.279 82.9643 812.483 85.6942C808.717 88.424 804.293 89.789 799.21 89.789C793.813 89.789 789.404 88.2985 785.984 85.3177C782.564 82.3054 780.509 78.0851 779.819 72.6568ZM814.507 42.2049C814.507 37.3414 813.204 33.4819 810.6 30.6266C808.027 27.7712 804.921 26.3436 801.281 26.3436C797.516 26.3436 794.237 27.8811 791.444 30.9561C788.651 34.0311 787.255 38.016 787.255 42.9109C787.255 47.3038 788.573 50.8808 791.209 53.642C793.876 56.3719 797.155 57.7368 801.046 57.7368C804.968 57.7368 808.184 56.3719 810.694 53.642C813.236 50.8808 814.507 47.0684 814.507 42.2049ZM832.203 54.5834C832.203 46.4252 833.035 39.8673 834.698 34.9096C836.392 29.9206 838.887 26.0768 842.182 23.3784C845.508 20.6799 849.681 19.3307 854.701 19.3307C858.404 19.3307 861.651 20.0837 864.444 21.5899C867.236 23.0646 869.543 25.214 871.363 28.0379C873.183 30.8305 874.61 34.2507 875.646 38.2984C876.681 42.3147 877.199 47.743 877.199 54.5834C877.199 62.6788 876.367 69.221 874.704 74.21C873.041 79.1677 870.547 83.0114 867.221 85.7413C863.926 88.4397 859.753 89.789 854.701 89.789C848.049 89.789 842.825 87.4043 839.028 82.6349C834.478 76.8928 832.203 67.5423 832.203 54.5834ZM840.911 54.5834C840.911 65.9106 842.229 73.4569 844.864 77.2223C847.531 80.9562 850.81 82.8231 854.701 82.8231C858.592 82.8231 861.855 80.9405 864.491 77.1752C867.158 73.4099 868.492 65.8793 868.492 54.5834C868.492 43.2247 867.158 35.6784 864.491 31.9444C861.855 28.2105 858.561 26.3436 854.607 26.3436C850.716 26.3436 847.61 27.9909 845.288 31.2855C842.37 35.4901 840.911 43.2561 840.911 54.5834ZM887.883 31.4738C887.883 27.8654 889.154 24.7904 891.695 22.2488C894.268 19.7072 897.343 18.4364 900.92 18.4364C904.56 18.4364 907.651 19.7072 910.192 22.2488C912.734 24.7904 914.005 27.8654 914.005 31.4738C914.005 35.0822 912.718 38.1729 910.145 40.7458C907.604 43.2874 904.529 44.5582 900.92 44.5582C897.343 44.5582 894.268 43.2874 891.695 40.7458C889.154 38.2043 887.883 35.1136 887.883 31.4738ZM893.013 31.4738C893.013 33.6702 893.782 35.5529 895.319 37.1217C896.888 38.6592 898.771 39.428 900.967 39.428C903.132 39.428 904.984 38.6592 906.521 37.1217C908.09 35.5529 908.875 33.6702 908.875 31.4738C908.875 29.2774 908.09 27.4104 906.521 25.8729C904.984 24.304 903.132 23.5196 900.967 23.5196C898.771 23.5196 896.888 24.304 895.319 25.8729C893.782 27.4104 893.013 29.2774 893.013 31.4738ZM685.921 199.612V130.613H695.287L731.529 184.786V130.613H740.283V199.612H730.917L694.676 145.392V199.612H685.921ZM751.438 174.62C751.438 165.364 754.011 158.508 759.157 154.052C763.455 150.35 768.695 148.498 774.877 148.498C781.748 148.498 787.365 150.757 791.726 155.276C796.088 159.763 798.269 165.976 798.269 173.914C798.269 180.346 797.296 185.414 795.351 189.117C793.436 192.788 790.628 195.643 786.926 197.683C783.254 199.722 779.238 200.742 774.877 200.742C767.879 200.742 762.216 198.498 757.886 194.011C753.587 189.524 751.438 183.061 751.438 174.62ZM760.145 174.62C760.145 181.021 761.541 185.822 764.334 189.022C767.126 192.192 770.641 193.776 774.877 193.776C779.081 193.776 782.58 192.176 785.372 188.975C788.165 185.775 789.561 180.896 789.561 174.338C789.561 168.156 788.149 163.481 785.325 160.312C782.533 157.111 779.05 155.511 774.877 155.511C770.641 155.511 767.126 157.096 764.334 160.265C761.541 163.434 760.145 168.219 760.145 174.62ZM808.153 199.612V149.628H815.777V157.206C817.723 153.66 819.511 151.322 821.143 150.193C822.806 149.063 824.626 148.498 826.603 148.498C829.458 148.498 832.36 149.408 835.31 151.228L832.392 159.088C830.321 157.864 828.25 157.253 826.179 157.253C824.328 157.253 822.665 157.817 821.19 158.947C819.715 160.045 818.664 161.583 818.036 163.559C817.095 166.572 816.624 169.866 816.624 173.443V199.612H808.153ZM872.775 199.612V193.305C869.605 198.263 864.946 200.742 858.796 200.742C854.811 200.742 851.14 199.644 847.782 197.447C844.456 195.251 841.868 192.192 840.016 188.269C838.197 184.316 837.287 179.782 837.287 174.667C837.287 169.678 838.118 165.16 839.781 161.112C841.444 157.033 843.939 153.911 847.265 151.746C850.591 149.581 854.309 148.498 858.419 148.498C861.432 148.498 864.114 149.142 866.468 150.428C868.821 151.683 870.735 153.33 872.21 155.37V130.613H880.635V199.612H872.775ZM845.994 174.667C845.994 181.068 847.343 185.853 850.042 189.022C852.74 192.192 855.925 193.776 859.596 193.776C863.299 193.776 866.436 192.27 869.009 189.258C871.614 186.214 872.916 181.586 872.916 175.373C872.916 168.533 871.598 163.512 868.962 160.312C866.327 157.111 863.079 155.511 859.22 155.511C855.454 155.511 852.301 157.049 849.759 160.124C847.249 163.199 845.994 168.046 845.994 174.667ZM894.002 218.768V149.628H901.72V156.123C903.54 153.581 905.596 151.683 907.886 150.428C910.177 149.142 912.954 148.498 916.217 148.498C920.484 148.498 924.249 149.596 927.513 151.793C930.776 153.989 933.239 157.096 934.902 161.112C936.565 165.097 937.397 169.474 937.397 174.244C937.397 179.358 936.471 183.971 934.62 188.081C932.8 192.16 930.133 195.298 926.619 197.494C923.136 199.659 919.464 200.742 915.605 200.742C912.781 200.742 910.239 200.146 907.98 198.953C905.752 197.761 903.917 196.255 902.473 194.435V218.768H894.002ZM901.673 174.902C901.673 181.335 902.976 186.089 905.58 189.164C908.184 192.239 911.338 193.776 915.04 193.776C918.805 193.776 922.022 192.192 924.689 189.022C927.387 185.822 928.736 180.88 928.736 174.196C928.736 167.827 927.419 163.057 924.783 159.888C922.179 156.719 919.057 155.135 915.417 155.135C911.808 155.135 908.608 156.829 905.815 160.218C903.054 163.575 901.673 168.47 901.673 174.902ZM944.504 174.62C944.504 165.364 947.077 158.508 952.223 154.052C956.521 150.35 961.761 148.498 967.943 148.498C974.814 148.498 980.431 150.757 984.792 155.276C989.154 159.763 991.335 165.976 991.335 173.914C991.335 180.346 990.362 185.414 988.417 189.117C986.503 192.788 983.694 195.643 979.992 197.683C976.321 199.722 972.304 200.742 967.943 200.742C960.946 200.742 955.282 198.498 950.952 194.011C946.653 189.524 944.504 183.061 944.504 174.62ZM953.211 174.62C953.211 181.021 954.607 185.822 957.4 189.022C960.192 192.192 963.707 193.776 967.943 193.776C972.147 193.776 975.646 192.176 978.439 188.975C981.231 185.775 982.627 180.896 982.627 174.338C982.627 168.156 981.215 163.481 978.391 160.312C975.599 157.111 972.116 155.511 967.943 155.511C963.707 155.511 960.192 157.096 957.4 160.265C954.607 163.434 953.211 168.219 953.211 174.62ZM1001.12 199.612V130.613H1009.6V199.612H1001.12Z" fill="white"/>
<path d="M1564.14 684.972C1564.14 676.814 1564.97 670.256 1566.63 665.298C1568.32 660.309 1570.82 656.466 1574.11 653.767C1577.44 651.069 1581.61 649.72 1586.63 649.72C1590.33 649.72 1593.58 650.473 1596.37 651.979C1599.17 653.454 1601.47 655.603 1603.29 658.427C1605.11 661.219 1606.54 664.639 1607.58 668.687C1608.61 672.703 1609.13 678.132 1609.13 684.972C1609.13 693.067 1608.3 699.609 1606.64 704.598C1604.97 709.556 1602.48 713.399 1599.15 716.129C1595.86 718.827 1591.68 720.177 1586.63 720.177C1579.98 720.177 1574.76 717.792 1570.96 713.023C1566.41 707.281 1564.14 697.93 1564.14 684.972ZM1572.84 684.972C1572.84 696.299 1574.16 703.845 1576.8 707.61C1579.46 711.344 1582.74 713.211 1586.63 713.211C1590.52 713.211 1593.79 711.328 1596.42 707.563C1599.09 703.798 1600.42 696.267 1600.42 684.972C1600.42 673.613 1599.09 666.067 1596.42 662.333C1593.79 658.599 1590.49 656.732 1586.54 656.732C1582.65 656.732 1579.54 658.38 1577.22 661.674C1574.3 665.879 1572.84 673.645 1572.84 684.972ZM1619.81 661.863C1619.81 658.254 1621.08 655.179 1623.63 652.638C1626.2 650.096 1629.27 648.825 1632.85 648.825C1636.49 648.825 1639.58 650.096 1642.12 652.638C1644.66 655.179 1645.93 658.254 1645.93 661.863C1645.93 665.471 1644.65 668.562 1642.08 671.134C1639.53 673.676 1636.46 674.947 1632.85 674.947C1629.27 674.947 1626.2 673.676 1623.63 671.134C1621.08 668.593 1619.81 665.502 1619.81 661.863ZM1624.94 661.863C1624.94 664.059 1625.71 665.942 1627.25 667.51C1628.82 669.048 1630.7 669.817 1632.9 669.817C1635.06 669.817 1636.91 669.048 1638.45 667.51C1640.02 665.942 1640.8 664.059 1640.8 661.863C1640.8 659.666 1640.02 657.799 1638.45 656.262C1636.91 654.693 1635.06 653.909 1632.9 653.909C1630.7 653.909 1628.82 654.693 1627.25 656.262C1625.71 657.799 1624.94 659.666 1624.94 661.863ZM1437.2 830L1463.7 761.002H1473.53L1501.77 830H1491.37L1483.32 809.103H1454.47L1446.9 830H1437.2ZM1457.11 801.667H1480.5L1473.3 782.558C1471.1 776.753 1469.47 771.984 1468.4 768.25C1467.53 772.674 1466.29 777.067 1464.69 781.428L1457.11 801.667ZM1455.18 756.766V747.118H1464.03V756.766H1455.18ZM1472.73 756.766V747.118H1481.58V756.766H1472.73ZM1539.85 849.156V824.682C1538.53 826.533 1536.68 828.07 1534.3 829.294C1531.94 830.518 1529.43 831.13 1526.77 831.13C1520.83 831.13 1515.72 828.761 1511.42 824.023C1507.15 819.285 1505.02 812.79 1505.02 804.538C1505.02 799.517 1505.88 795.015 1507.61 791.03C1509.37 787.045 1511.89 784.033 1515.19 781.993C1518.51 779.922 1522.15 778.887 1526.11 778.887C1532.29 778.887 1537.15 781.491 1540.7 786.7V780.017H1548.32V849.156H1539.85ZM1513.73 804.867C1513.73 811.299 1515.08 816.131 1517.78 819.363C1520.47 822.564 1523.71 824.164 1527.47 824.164C1531.08 824.164 1534.19 822.642 1536.79 819.599C1539.39 816.524 1540.7 811.864 1540.7 805.62C1540.7 798.968 1539.32 793.964 1536.55 790.606C1533.82 787.249 1530.61 785.57 1526.91 785.57C1523.24 785.57 1520.11 787.139 1517.54 790.277C1515 793.383 1513.73 798.247 1513.73 804.867ZM1594.4 830V822.658C1590.51 828.306 1585.22 831.13 1578.54 831.13C1575.59 831.13 1572.83 830.565 1570.25 829.435C1567.71 828.306 1565.81 826.894 1564.56 825.199C1563.33 823.474 1562.47 821.371 1561.97 818.893C1561.62 817.23 1561.45 814.594 1561.45 810.986V780.017H1569.92V807.738C1569.92 812.162 1570.1 815.143 1570.44 816.68C1570.98 818.908 1572.1 820.665 1573.83 821.952C1575.56 823.207 1577.69 823.834 1580.23 823.834C1582.77 823.834 1585.16 823.191 1587.39 821.905C1589.61 820.587 1591.18 818.814 1592.09 816.586C1593.03 814.327 1593.5 811.064 1593.5 806.797V780.017H1601.98V830H1594.4ZM1647.91 823.834C1644.77 826.501 1641.75 828.384 1638.83 829.482C1635.94 830.58 1632.83 831.13 1629.51 831.13C1624.02 831.13 1619.8 829.796 1616.85 827.129C1613.9 824.431 1612.42 820.995 1612.42 816.822C1612.42 814.374 1612.97 812.147 1614.07 810.138C1615.2 808.099 1616.66 806.467 1618.45 805.244C1620.27 804.02 1622.31 803.094 1624.57 802.467C1626.23 802.027 1628.74 801.604 1632.1 801.196C1638.94 800.38 1643.97 799.407 1647.21 798.278C1647.24 797.117 1647.25 796.38 1647.25 796.066C1647.25 792.614 1646.45 790.183 1644.85 788.771C1642.69 786.857 1639.47 785.9 1635.2 785.9C1631.22 785.9 1628.27 786.606 1626.36 788.018C1624.47 789.398 1623.08 791.861 1622.17 795.407L1613.88 794.277C1614.64 790.732 1615.88 787.876 1617.6 785.711C1619.33 783.515 1621.82 781.836 1625.08 780.675C1628.35 779.483 1632.13 778.887 1636.43 778.887C1640.69 778.887 1644.16 779.389 1646.83 780.393C1649.5 781.397 1651.46 782.668 1652.71 784.205C1653.97 785.711 1654.85 787.625 1655.35 789.947C1655.63 791.391 1655.77 793.995 1655.77 797.76V809.056C1655.77 816.931 1655.94 821.92 1656.29 824.023C1656.67 826.094 1657.39 828.086 1658.45 830H1649.61C1648.73 828.243 1648.16 826.188 1647.91 823.834ZM1647.21 804.914C1644.13 806.169 1639.52 807.236 1633.37 808.115C1629.89 808.617 1627.42 809.181 1625.98 809.809C1624.54 810.436 1623.42 811.362 1622.64 812.586C1621.85 813.778 1621.46 815.112 1621.46 816.586C1621.46 818.845 1622.31 820.728 1624 822.234C1625.73 823.74 1628.24 824.493 1631.53 824.493C1634.8 824.493 1637.7 823.787 1640.24 822.375C1642.78 820.932 1644.65 818.971 1645.84 816.492C1646.75 814.578 1647.21 811.754 1647.21 808.02V804.914ZM1687.45 822.422L1688.67 829.906C1686.29 830.408 1684.15 830.659 1682.27 830.659C1679.19 830.659 1676.81 830.173 1675.12 829.2C1673.42 828.227 1672.23 826.956 1671.54 825.388C1670.85 823.787 1670.5 820.446 1670.5 815.363V786.606H1664.29V780.017H1670.5V767.638L1678.93 762.555V780.017H1687.45V786.606H1678.93V815.833C1678.93 818.249 1679.07 819.802 1679.35 820.493C1679.66 821.183 1680.15 821.732 1680.81 822.14C1681.5 822.548 1682.47 822.752 1683.73 822.752C1684.67 822.752 1685.91 822.642 1687.45 822.422ZM1692.62 805.008C1692.62 795.752 1695.2 788.896 1700.34 784.441C1704.64 780.738 1709.88 778.887 1716.06 778.887C1722.93 778.887 1728.55 781.146 1732.91 785.664C1737.27 790.151 1739.45 796.364 1739.45 804.302C1739.45 810.735 1738.48 815.802 1736.54 819.504C1734.62 823.176 1731.81 826.031 1728.11 828.07C1724.44 830.11 1720.42 831.13 1716.06 831.13C1709.07 831.13 1703.4 828.886 1699.07 824.399C1694.77 819.912 1692.62 813.449 1692.62 805.008ZM1701.33 805.008C1701.33 811.409 1702.73 816.21 1705.52 819.41C1708.31 822.579 1711.83 824.164 1716.06 824.164C1720.27 824.164 1723.77 822.564 1726.56 819.363C1729.35 816.163 1730.75 811.284 1730.75 804.726C1730.75 798.545 1729.33 793.869 1726.51 790.7C1723.72 787.5 1720.24 785.9 1716.06 785.9C1711.83 785.9 1708.31 787.484 1705.52 790.653C1702.73 793.822 1701.33 798.607 1701.33 805.008ZM1749.34 830V780.017H1756.96V787.594C1758.91 784.048 1760.7 781.711 1762.33 780.581C1763.99 779.452 1765.81 778.887 1767.79 778.887C1770.64 778.887 1773.54 779.797 1776.49 781.617L1773.58 789.477C1771.51 788.253 1769.43 787.641 1767.36 787.641C1765.51 787.641 1763.85 788.206 1762.37 789.335C1760.9 790.434 1759.85 791.971 1759.22 793.948C1758.28 796.96 1757.81 800.255 1757.81 803.832V830H1749.34Z" fill="white"/>
<path d="M786.059 1414.29V1405.77H812.086V1414.29H786.059ZM820.369 1419.04L828.512 1418.29C829.202 1422.12 830.52 1424.9 832.465 1426.62C834.41 1428.35 836.905 1429.21 839.948 1429.21C842.553 1429.21 844.828 1428.61 846.773 1427.42C848.75 1426.23 850.366 1424.65 851.621 1422.67C852.876 1420.66 853.927 1417.96 854.774 1414.57C855.621 1411.18 856.045 1407.73 856.045 1404.22C856.045 1403.84 856.029 1403.28 855.998 1402.52C854.303 1405.22 851.982 1407.42 849.032 1409.11C846.114 1410.78 842.945 1411.61 839.525 1411.61C833.814 1411.61 828.982 1409.54 825.029 1405.4C821.075 1401.25 819.098 1395.79 819.098 1389.02C819.098 1382.02 821.154 1376.39 825.264 1372.12C829.406 1367.85 834.583 1365.72 840.796 1365.72C845.283 1365.72 849.377 1366.93 853.08 1369.34C856.814 1371.76 859.637 1375.21 861.551 1379.7C863.497 1384.15 864.47 1390.62 864.47 1399.09C864.47 1407.91 863.513 1414.93 861.599 1420.17C859.685 1425.38 856.829 1429.35 853.033 1432.08C849.267 1434.81 844.843 1436.18 839.76 1436.18C834.363 1436.18 829.955 1434.69 826.535 1431.71C823.115 1428.69 821.06 1424.47 820.369 1419.04ZM855.056 1388.59C855.056 1383.73 853.754 1379.87 851.15 1377.02C848.577 1374.16 845.471 1372.73 841.831 1372.73C838.066 1372.73 834.787 1374.27 831.994 1377.34C829.202 1380.42 827.806 1384.4 827.806 1389.3C827.806 1393.69 829.123 1397.27 831.759 1400.03C834.426 1402.76 837.705 1404.13 841.596 1404.13C845.518 1404.13 848.734 1402.76 851.244 1400.03C853.786 1397.27 855.056 1393.46 855.056 1388.59ZM872.753 1400.97C872.753 1392.81 873.585 1386.26 875.248 1381.3C876.942 1376.31 879.436 1372.47 882.731 1369.77C886.057 1367.07 890.23 1365.72 895.25 1365.72C898.953 1365.72 902.2 1366.47 904.993 1367.98C907.785 1369.45 910.092 1371.6 911.911 1374.43C913.731 1377.22 915.159 1380.64 916.194 1384.69C917.23 1388.7 917.748 1394.13 917.748 1400.97C917.748 1409.07 916.916 1415.61 915.253 1420.6C913.59 1425.56 911.096 1429.4 907.77 1432.13C904.475 1434.83 900.302 1436.18 895.25 1436.18C888.598 1436.18 883.374 1433.79 879.578 1429.02C875.028 1423.28 872.753 1413.93 872.753 1400.97ZM881.46 1400.97C881.46 1412.3 882.778 1419.84 885.414 1423.61C888.081 1427.34 891.36 1429.21 895.25 1429.21C899.141 1429.21 902.404 1427.33 905.04 1423.56C907.707 1419.8 909.04 1412.27 909.04 1400.97C909.04 1389.61 907.707 1382.07 905.04 1378.33C902.404 1374.6 899.11 1372.73 895.156 1372.73C891.265 1372.73 888.159 1374.38 885.837 1377.67C882.919 1381.88 881.46 1389.64 881.46 1400.97ZM928.431 1377.86C928.431 1374.25 929.702 1371.18 932.244 1368.64C934.817 1366.1 937.892 1364.83 941.469 1364.83C945.108 1364.83 948.199 1366.1 950.74 1368.64C953.282 1371.18 954.553 1374.25 954.553 1377.86C954.553 1381.47 953.266 1384.56 950.693 1387.13C948.152 1389.68 945.077 1390.95 941.469 1390.95C937.892 1390.95 934.817 1389.68 932.244 1387.13C929.702 1384.59 928.431 1381.5 928.431 1377.86ZM933.562 1377.86C933.562 1380.06 934.33 1381.94 935.868 1383.51C937.437 1385.05 939.319 1385.82 941.516 1385.82C943.681 1385.82 945.532 1385.05 947.069 1383.51C948.638 1381.94 949.423 1380.06 949.423 1377.86C949.423 1375.67 948.638 1373.8 947.069 1372.26C945.532 1370.69 943.681 1369.91 941.516 1369.91C939.319 1369.91 937.437 1370.69 935.868 1372.26C934.33 1373.8 933.562 1375.67 933.562 1377.86ZM726.144 1523.83L734.757 1523.08C735.165 1526.53 736.106 1529.37 737.581 1531.6C739.087 1533.79 741.409 1535.58 744.547 1536.96C747.685 1538.31 751.214 1538.99 755.137 1538.99C758.619 1538.99 761.694 1538.47 764.361 1537.43C767.028 1536.4 769.005 1534.99 770.292 1533.2C771.609 1531.38 772.268 1529.4 772.268 1527.27C772.268 1525.1 771.641 1523.22 770.386 1521.62C769.131 1519.99 767.06 1518.62 764.173 1517.53C762.322 1516.8 758.227 1515.69 751.889 1514.18C745.551 1512.65 741.111 1511.2 738.57 1509.85C735.275 1508.13 732.812 1505.99 731.18 1503.45C729.58 1500.88 728.78 1498.01 728.78 1494.84C728.78 1491.36 729.768 1488.11 731.745 1485.1C733.722 1482.05 736.608 1479.75 740.405 1478.18C744.202 1476.61 748.422 1475.83 753.066 1475.83C758.18 1475.83 762.683 1476.66 766.573 1478.32C770.496 1479.95 773.508 1482.37 775.61 1485.57C777.712 1488.77 778.842 1492.39 778.999 1496.44L770.245 1497.1C769.774 1492.74 768.174 1489.44 765.444 1487.22C762.745 1484.99 758.745 1483.87 753.442 1483.87C747.92 1483.87 743.888 1484.89 741.346 1486.93C738.836 1488.94 737.581 1491.37 737.581 1494.23C737.581 1496.71 738.475 1498.75 740.264 1500.35C742.021 1501.95 746.602 1503.59 754.007 1505.29C761.443 1506.95 766.542 1508.41 769.303 1509.67C773.319 1511.52 776.285 1513.87 778.199 1516.73C780.113 1519.55 781.07 1522.81 781.07 1526.51C781.07 1530.19 780.018 1533.65 777.916 1536.92C775.814 1540.15 772.786 1542.67 768.833 1544.49C764.91 1546.28 760.486 1547.18 755.56 1547.18C749.316 1547.18 744.076 1546.27 739.84 1544.45C735.636 1542.63 732.325 1539.9 729.909 1536.26C727.525 1532.59 726.27 1528.44 726.144 1523.83ZM825.217 1546V1538.66C821.326 1544.31 816.039 1547.13 809.356 1547.13C806.406 1547.13 803.645 1546.56 801.072 1545.44C798.531 1544.31 796.633 1542.89 795.377 1541.2C794.154 1539.47 793.291 1537.37 792.789 1534.89C792.444 1533.23 792.271 1530.59 792.271 1526.99V1496.02H800.743V1523.74C800.743 1528.16 800.916 1531.14 801.261 1532.68C801.794 1534.91 802.924 1536.67 804.649 1537.95C806.375 1539.21 808.509 1539.83 811.05 1539.83C813.592 1539.83 815.976 1539.19 818.204 1537.9C820.432 1536.59 822.001 1534.81 822.911 1532.59C823.852 1530.33 824.323 1527.06 824.323 1522.8V1496.02H832.794V1546H825.217ZM799.331 1486.23V1476.58H808.179V1486.23H799.331ZM816.886 1486.23V1476.58H825.735V1486.23H816.886ZM878.542 1546V1539.69C875.373 1544.65 870.714 1547.13 864.564 1547.13C860.579 1547.13 856.908 1546.03 853.55 1543.83C850.224 1541.64 847.636 1538.58 845.785 1534.66C843.965 1530.7 843.055 1526.17 843.055 1521.06C843.055 1516.07 843.886 1511.55 845.549 1507.5C847.212 1503.42 849.707 1500.3 853.033 1498.13C856.359 1495.97 860.077 1494.89 864.187 1494.89C867.199 1494.89 869.882 1495.53 872.235 1496.82C874.589 1498.07 876.503 1499.72 877.977 1501.76V1477H886.402V1546H878.542ZM851.762 1521.06C851.762 1527.46 853.111 1532.24 855.809 1535.41C858.508 1538.58 861.693 1540.16 865.364 1540.16C869.066 1540.16 872.204 1538.66 874.777 1535.65C877.381 1532.6 878.683 1527.97 878.683 1521.76C878.683 1514.92 877.365 1509.9 874.73 1506.7C872.094 1503.5 868.847 1501.9 864.987 1501.9C861.222 1501.9 858.069 1503.44 855.527 1506.51C853.017 1509.59 851.762 1514.43 851.762 1521.06ZM899.769 1565.16V1496.02H907.487V1502.51C909.307 1499.97 911.362 1498.07 913.653 1496.82C915.943 1495.53 918.72 1494.89 921.983 1494.89C926.251 1494.89 930.016 1495.99 933.279 1498.18C936.542 1500.38 939.005 1503.48 940.668 1507.5C942.331 1511.49 943.163 1515.86 943.163 1520.63C943.163 1525.75 942.237 1530.36 940.386 1534.47C938.566 1538.55 935.899 1541.69 932.385 1543.88C928.902 1546.05 925.231 1547.13 921.372 1547.13C918.548 1547.13 916.006 1546.53 913.747 1545.34C911.519 1544.15 909.684 1542.64 908.24 1540.82V1565.16H899.769ZM907.44 1521.29C907.44 1527.72 908.742 1532.48 911.347 1535.55C913.951 1538.63 917.104 1540.16 920.807 1540.16C924.572 1540.16 927.788 1538.58 930.455 1535.41C933.154 1532.21 934.503 1527.27 934.503 1520.58C934.503 1514.22 933.185 1509.45 930.549 1506.28C927.945 1503.11 924.823 1501.52 921.183 1501.52C917.575 1501.52 914.375 1503.22 911.582 1506.61C908.821 1509.96 907.44 1514.86 907.44 1521.29ZM950.27 1521.01C950.27 1511.75 952.843 1504.9 957.989 1500.44C962.287 1496.74 967.527 1494.89 973.708 1494.89C980.58 1494.89 986.196 1497.15 990.558 1501.66C994.919 1506.15 997.1 1512.36 997.1 1520.3C997.1 1526.73 996.127 1531.8 994.182 1535.5C992.268 1539.18 989.46 1542.03 985.757 1544.07C982.086 1546.11 978.07 1547.13 973.708 1547.13C966.711 1547.13 961.048 1544.89 956.718 1540.4C952.419 1535.91 950.27 1529.45 950.27 1521.01ZM958.977 1521.01C958.977 1527.41 960.373 1532.21 963.166 1535.41C965.958 1538.58 969.472 1540.16 973.708 1540.16C977.913 1540.16 981.411 1538.56 984.204 1535.36C986.997 1532.16 988.393 1527.28 988.393 1520.73C988.393 1514.54 986.981 1509.87 984.157 1506.7C981.364 1503.5 977.882 1501.9 973.708 1501.9C969.472 1501.9 965.958 1503.48 963.166 1506.65C960.373 1509.82 958.977 1514.61 958.977 1521.01ZM1006.89 1546V1477H1015.36V1546H1006.89Z" fill="white"/>
</g>
<defs>
<clipPath id="clip0_258_406">
<rect width="1785" height="1565" fill="white"/>
</clipPath>
</defs>
</svg>
