<svg width="87" height="109" viewBox="0 0 87 109" fill="none" xmlns="http://www.w3.org/2000/svg">
<path d="M18.2425 0.611328C32.9093 5.99682 67.0557 27.218 86.3059 69.0186C79.1688 77.147 59.9916 87.3164 34.65 72.6416L32.6802 76.5812H39.899V99.269C46.4991 99.269 48.6075 105.686 48.8366 108.894H0.367188C1.74221 100.919 7.12769 99.1544 9.64856 99.269V85.1751C-3.00162 78.3 4.37765 69.9353 9.64856 66.6123C6.54672 58.193 10.5255 53.5223 14.2863 51.4855C6.95776 37.119 2.73821 16.7276 18.2425 0.611328Z" fill="#00D1FF"/>
<path d="M73.9308 12.6428L43.3366 15.3928V19.5179L62.2431 18.1428C62.2431 22.5429 64.9931 24.1013 66.3681 24.3304L62.2431 35.3306L64.9931 40.1432L69.4619 27.0805V44.9557L72.212 50.4558L73.9308 12.6428Z" fill="#00D1FF"/>
</svg>
