<svg width="1089" height="1371" viewBox="0 0 1089 1371" fill="none" xmlns="http://www.w3.org/2000/svg">
<path d="M226.512 0C412.368 68.1873 845.064 336.874 1089 866.124C998.559 969.04 755.549 1097.8 434.425 911.996L409.464 961.876H500.94V1249.13C584.575 1249.13 611.292 1330.38 614.196 1371H0C17.424 1270.02 85.6679 1247.68 117.612 1249.13V1070.69C-42.6889 983.638 50.8199 877.73 117.612 835.657C78.3059 729.058 128.724 669.921 176.381 644.133C83.5146 462.234 30.0452 204.052 226.512 0Z" fill="white"/>
<path d="M932.184 152.333L544.5 187.152V239.381L784.08 221.971C784.08 277.682 818.928 297.413 836.352 300.314L784.08 439.59L818.928 500.524L875.556 335.133V561.457L910.404 631.095L932.184 152.333Z" fill="white"/>
</svg>
